<svg xmlns="http://www.w3.org/2000/svg" width="22.166" height="23.747" viewBox="0 0 22.166 23.747">
    <g>
        <path fill="#333" d="M304.4 323.562h2.375v2.375a.4.4 0 1 0 .792 0v-2.375h2.375a.4.4 0 1 0 0-.792h-2.375v-2.37a.4.4 0 0 0-.792 0v2.375H304.4a.4.4 0 1 0 0 .792z" transform="translate(-32 -15.986) translate(-258.543 -288.973)"/>
        <path fill="#4f4f4f" d="M32.206 35.729a21.25 21.25 0 0 0 8.9 2.423 16.438 16.438 0 0 0 3.314-.352 5.54 5.54 0 1 0 4.2-9.147c-.106 0-.211 0-.316.009a8.751 8.751 0 0 0-5.052-3.692 4.75 4.75 0 1 0-4.3 0 8.591 8.591 0 0 0-4.3 2.71A11.653 11.653 0 0 0 32 35.381a.4.4 0 0 0 .206.348zm16.418-6.285a4.75 4.75 0 1 1-4.75 4.75 4.75 4.75 0 0 1 4.75-4.75zm-11.479-8.708a3.958 3.958 0 1 1 3.955 3.958 3.958 3.958 0 0 1-3.955-3.958zm-1.9 7.464a7.7 7.7 0 0 1 12.183.582 5.539 5.539 0 0 0-3.528 8.312 15.442 15.442 0 0 1-2.8.267 20.53 20.53 0 0 1-8.31-2.219 10.79 10.79 0 0 1 2.455-6.942z" transform="translate(-32 -15.986)"/>
    </g>
</svg>
