<svg xmlns="http://www.w3.org/2000/svg" width="17.513" height="18.341" viewBox="0 0 17.513 18.341">
    <path fill="#4f4f4f" d="M5.782 18.341a4.6 4.6 0 0 1-3.252-7.848L12.042.981a3.407 3.407 0 0 1 4.919.144 3.406 3.406 0 0 1 .144 4.919L8.169 14.98a2.153 2.153 0 0 1-3.045-3.045l6.054-6.054a.523.523 0 1 1 .739.739l-6.054 6.054a1.108 1.108 0 0 0 1.567 1.567L16.366 5.3a2.386 2.386 0 0 0-.144-3.441 2.386 2.386 0 0 0-3.441-.144l-9.512 9.518a3.554 3.554 0 0 0 5.026 5.026l9.513-9.513a.523.523 0 0 1 .739.739L9.034 17a4.567 4.567 0 0 1-3.252 1.341z" transform="translate(-1.187)"/>
</svg>
