<svg xmlns="http://www.w3.org/2000/svg" width="150" height="150" viewBox="0 0 150 150">
  <g id="avatar_1" transform="translate(-705 -440)">
    <path id="Path_1" data-name="Path 1" d="M77,2a75,75,0,1,0,75,75A75,75,0,0,0,77,2Zm0,22.5a22.47,22.47,0,1,1-15.919,6.581A22.5,22.5,0,0,1,77,24.5ZM77,131a54,54,0,0,1-45-24.15c.225-14.925,30-23.1,45-23.1,14.925,0,44.775,8.175,45,23.1A54,54,0,0,1,77,131Z" transform="translate(703 438)" fill="#bcbccb"/>
    <circle id="Ellipse_1" data-name="Ellipse 1" cx="13" cy="13" r="13" transform="translate(829 546)" fill="#fff"/>
    <path id="Path_2" data-name="Path 2" d="M12,2A10,10,0,1,0,22,12,10,10,0,0,0,12,2Zm5,11H13v4H11V13H7V11h4V7h2v4h4Z" transform="translate(830 547)" fill="#f48d3a"/>
  </g>
</svg>
