<svg xmlns="http://www.w3.org/2000/svg" width="137" height="124" viewBox="0 0 137 124">
    <g transform="translate(-731 -455)">
        <rect width="124" height="124" fill="#bcbccb" rx="10" transform="translate(731 455)"/>
        <path fill="#f0f0f7" d="M34.556 18.222V6H4v55h61.111V18.222zM16.222 54.889h-6.111v-6.111h6.111zm0-12.222h-6.111v-6.111h6.111zm0-12.222h-6.111v-6.112h6.111zm0-12.222h-6.111v-6.112h6.111zm12.222 36.666h-6.111v-6.111h6.111zm0-12.222h-6.111v-6.111h6.111zm0-12.222h-6.111v-6.112h6.111zm0-12.222h-6.111v-6.112h6.111zM59 54.889H34.556v-6.111h6.111v-6.111h-6.111v-6.111h6.111v-6.112h-6.111v-6.111H59zm-6.111-24.445h-6.111v6.111h6.111zm0 12.222h-6.111v6.111h6.111z" transform="translate(758 484)"/>
        <circle cx="13" cy="13" r="13" fill="#fff" transform="translate(842 548)"/>
        <path fill="#f48d3a" d="M12 2a10 10 0 1 0 10 10A10 10 0 0 0 12 2zm5 11h-4v4h-2v-4H7v-2h4V7h2v4h4z" transform="translate(843 549)"/>
    </g>
</svg>
