<svg xmlns="http://www.w3.org/2000/svg" width="150" height="150" viewBox="0 0 150 150">
  <g id="Group_5931" data-name="Group 5931" transform="translate(-705 -440)">
    <path id="Path_7229" data-name="Path 7229" d="M76.925,2a74.963,74.963,0,1,0,53.092,21.93A75,75,0,0,0,76.925,2Zm31.8,120L77,102.875,45.275,122l8.4-36.075L25.7,61.7l36.9-3.15L77,24.5,91.4,58.475l36.9,3.15L100.325,85.85Z" transform="translate(703 438)" fill="#bcbccb"/>
    <circle id="Ellipse_123" data-name="Ellipse 123" cx="13" cy="13" r="13" transform="translate(829 546)" fill="#fff"/>
    <path id="Path_917" data-name="Path 917" d="M12,2A10,10,0,1,0,22,12,10,10,0,0,0,12,2Zm5,11H13v4H11V13H7V11h4V7h2v4h4Z" transform="translate(830 547)" fill="#f48d3a"/>
  </g>
</svg>
