<svg xmlns="http://www.w3.org/2000/svg" width="296" height="100" viewBox="0 0 296 100">
    <defs>
        <style>
            .cls-1,.cls-3{fill:#5c4da0}.cls-2{fill:#a3a0fb}.cls-3{opacity:.3}
        </style>
    </defs>
    <g id="Group_6167" transform="translate(-1462 -335)">
        <g id="Group_6140" transform="translate(895 -383)">
            <rect id="Rectangle_2023" width="100" height="100" class="cls-1" rx="10" transform="translate(665 718)"/>
            <g id="Ag3vIH" transform="translate(676.585 752.667)">
                <path id="Path_1466" d="M208.733 10.056a15.515 15.515 0 0 0-4.333-6.294A14.774 14.774 0 0 0 197.875.4a15.029 15.029 0 0 0-4.712-.35 14.516 14.516 0 0 0-4.44 1.06 15.2 15.2 0 0 0-6.67 5.372 12.317 12.317 0 0 0-1.822 3.656c-.314 1.06-.555 2.119-.8 3.179a.377.377 0 0 1-.429.307H176.6a1.665 1.665 0 0 0 0 3.317h2.366c.293 0 .482.064.482.392.094.572.209 1.155.356 1.727a14.625 14.625 0 0 0 3.927 6.994 15.066 15.066 0 0 0 15.683 3.667 15.336 15.336 0 0 0 10.136-12.65 6.207 6.207 0 0 1 .576-2.331 3.273 3.273 0 0 1 4.031-1.674 3.607 3.607 0 0 1 2.387 3.179c.084.562.1 1.134.209 1.685a15.218 15.218 0 0 0 20.763 11.553 15.389 15.389 0 0 0 9.309-12.1c0-.318.188-.392.492-.392.806 0 1.623-.053 2.44-.053a1.677 1.677 0 0 0 0-3.317h-2.407c-.325 0-.534 0-.534-.413a4.665 4.665 0 0 0-.178-1.06 15.717 15.717 0 0 0-3.138-6.511A15.131 15.131 0 0 0 230.607.1a14.605 14.605 0 0 0-6.282 1.918 15.174 15.174 0 0 0-7.005 8.477 3.844 3.844 0 0 1-.251.456 6.679 6.679 0 0 0-8.01 0c-.117-.351-.221-.641-.326-.895zm-2.408 5.383a11.9 11.9 0 0 1-11.905 11.9h-.052a12.007 12.007 0 1 1 11.958-11.91zm13.539 0v-.074a11.932 11.932 0 1 1 0 .117z" class="cls-2" transform="translate(-175.085)"/>
            </g>
        </g>
        <path id="Path_912" d="M19 13h-6v6h-2v-6H5v-2h6V5h2v6h6z" class="cls-1" transform="translate(1511 330)"/>
        <path id="Path_6722" d="M19 13h-6v6h-2v-6H5v-2h6V5h2v6h6z" class="cls-1" transform="translate(1457 380)"/>
        <path id="Path_6724" d="M19 13h-6v6h-2v-6H5v-2h6V5h2v6h6z" class="cls-1" transform="translate(1497 416)"/>
        <path id="Path_6726" d="M15 10.714h-4.286V15H9.286v-4.286H5V9.286h4.286V5h1.429v4.286H15z" class="cls-3" transform="translate(1527 375)"/>
        <path id="Path_6727" d="M15 10.714h-4.286V15H9.286v-4.286H5V9.286h4.286V5h1.429v4.286H15z" class="cls-3" transform="translate(1673 375)"/>
        <path id="Path_6721" d="M19 13h-6v6h-2v-6H5v-2h6V5h2v6h6z" class="cls-1" transform="translate(1685 416)"/>
        <path id="Path_6725" d="M19 13h-6v6h-2v-6H5v-2h6V5h2v6h6z" class="cls-1" transform="translate(1699 330)"/>
        <path id="Path_6723" d="M19 13h-6v6h-2v-6H5v-2h6V5h2v6h6z" class="cls-1" transform="translate(1739 387)"/>
        <path id="Rectangle_2029" d="M0 0H5V5H0z" class="cls-2" transform="translate(1487 349)"/>
        <path id="Rectangle_2032" d="M0 0H5V5H0z" class="cls-2" transform="translate(1542 416)"/>
        <path id="Rectangle_2030" d="M0 0H5V5H0z" class="cls-2" transform="translate(1729 416)"/>
        <path id="Rectangle_2031" d="M0 0H5V5H0z" class="cls-2" transform="translate(1688 349)"/>
    </g>
</svg>
