<svg xmlns="http://www.w3.org/2000/svg" xmlns:xlink="http://www.w3.org/1999/xlink" id="Group_6088" width="1920" height="1080" viewBox="0 0 1920 1080">
    <defs>
        <linearGradient id="linear-gradient" x1=".897" x2=".206" y1=".86" y2=".123" gradientUnits="objectBoundingBox">
            <stop offset="0" stop-color="#2e2c6d"/>
            <stop offset="1" stop-color="#6b3dbc"/>
        </linearGradient>
        <linearGradient id="linear-gradient-2" x1=".897" x2=".206" y1=".14" y2=".877" xlink:href="#linear-gradient"/>
        <linearGradient id="linear-gradient-3" x1=".5" x2=".5" y1="1" gradientUnits="objectBoundingBox">
            <stop offset="0" stop-color="#2e2c6d"/>
            <stop offset=".615" stop-color="#5838a3"/>
            <stop offset="1" stop-color="#6b3dbc"/>
        </linearGradient>
        <linearGradient id="linear-gradient-4" x1=".5" x2=".5" y2="1" gradientUnits="objectBoundingBox">
            <stop offset="0" stop-color="#54d8ff"/>
            <stop offset="1" stop-color="#fff" stop-opacity="0"/>
        </linearGradient>
        <clipPath id="clip-path">
            <path id="Path_1473" fill="url(#linear-gradient)" d="M0 1080h1920V0H0z"/>
        </clipPath>
        <clipPath id="clip-path-2">
            <path id="Path_1473-2" fill="url(#linear-gradient-2)" d="M0 0h1920v1080H0z"/>
        </clipPath>
        <style>
            .cls-6{opacity:.28;fill:url(#linear-gradient-4)}
        </style>
    </defs>
    <g id="Group_244">
        <path id="Path_1472" fill="url(#linear-gradient-3)" d="M0 1080h1920V0H0z"/>
    </g>
    <g id="Mask_Group_2-2" clip-path="url(#clip-path-2)">
        <path id="Filled.Graph" d="M330 687.576V354.422s301.107 331.225 548.452 343.69c275.977-2.807 278.239-171.952 520.751-264.548 203.024-72.706 357.942 125.622 527.763 130.459s287.023-135.926 518.71-145.705c300.179 14.727 541.051 202.792 559.742 212.9v137.498L330 768.958z" class="cls-6" transform="translate(-680.365 281.578)"/>
        <path id="Filled.Graph-2" d="M330 687.576V354.422s301.107 331.225 548.452 343.69c275.977-2.807 278.239-171.952 520.751-264.548 203.024-72.706 357.942 125.622 527.763 130.459s287.023-135.926 518.71-145.705c300.179 14.727 541.051 202.792 559.742 212.9v137.498L330 768.958z" class="cls-6" transform="translate(-330 245.578)"/>
    </g>
</svg>
