<svg xmlns="http://www.w3.org/2000/svg" id="Group_3238" width="97.345" height="91" viewBox="0 0 97.345 91">
    <defs>
        <style>
            .cls-1{fill:#fdd020}
        </style>
    </defs>
    <g id="sunny" transform="translate(26.355)">
        <circle id="Ellipse_331" cx="23.149" cy="23.149" r="23.149" class="cls-1" transform="translate(12.346 12.346)"/>
        <g id="Group_3236">
            <path id="Path_1498" d="M236.209 9.26a1.543 1.543 0 0 0 1.543-1.543V1.543a1.543 1.543 0 0 0-3.087 0v6.173a1.543 1.543 0 0 0 1.544 1.544z" class="cls-1" transform="translate(-200.714)"/>
            <path id="Path_1499" d="M236.209 426.667a1.543 1.543 0 0 0-1.543 1.543v6.173a1.543 1.543 0 0 0 3.087 0v-6.173a1.543 1.543 0 0 0-1.544-1.543z" class="cls-1" transform="translate(-200.714 -364.937)"/>
            <path id="Path_1500" d="M434.382 234.667h-6.173a1.543 1.543 0 0 0 0 3.087h6.173a1.543 1.543 0 0 0 0-3.087z" class="cls-1" transform="translate(-364.936 -200.715)"/>
            <path id="Path_1501" d="M9.26 236.209a1.543 1.543 0 0 0-1.543-1.543H1.543a1.543 1.543 0 0 0 0 3.087h6.173a1.543 1.543 0 0 0 1.544-1.544z" class="cls-1" transform="translate(0 -200.714)"/>
            <path id="Path_1502" d="M120.674 39.157a1.543 1.543 0 0 0 1.34.772 1.521 1.521 0 0 0 .772-.207 1.543 1.543 0 0 0 .565-2.108l-3.086-5.346a1.543 1.543 0 0 0-2.673 1.543z" class="cls-1" transform="translate(-100.405 -26.947)"/>
            <path id="Path_1503" d="M333.576 401.762a1.543 1.543 0 0 0-2.673 1.543l3.086 5.346a1.543 1.543 0 0 0 1.34.772 1.522 1.522 0 0 0 .772-.207 1.543 1.543 0 0 0 .565-2.108z" class="cls-1" transform="translate(-282.855 -342.982)"/>
            <path id="Path_1504" d="M402.48 123.322a1.521 1.521 0 0 0 .772-.207l5.346-3.086a1.543 1.543 0 1 0-1.431-2.735q-.058.03-.113.065l-5.346 3.086a1.543 1.543 0 0 0 .772 2.88z" class="cls-1" transform="translate(-342.929 -100.173)"/>
            <path id="Path_1505" d="M37.562 330.689l-5.346 3.086a1.543 1.543 0 0 0 .772 2.88 1.522 1.522 0 0 0 .772-.207l5.346-3.086a1.543 1.543 0 1 0-1.431-2.735q-.058.03-.113.065z" class="cls-1" transform="translate(-26.895 -282.641)"/>
            <path id="Path_1506" d="M31.865 120.01l5.346 3.086a1.521 1.521 0 0 0 .769.207 1.543 1.543 0 0 0 .772-2.88l-5.346-3.086a1.543 1.543 0 0 0-1.656 2.6q.055.035.113.065z" class="cls-1" transform="translate(-26.544 -100.154)"/>
            <path id="Path_1507" d="M408.266 333.757l-5.346-3.086a1.543 1.543 0 1 0-1.656 2.6c.037.023.074.045.113.065l5.346 3.086a1.522 1.522 0 0 0 .772.207 1.543 1.543 0 0 0 .772-2.88z" class="cls-1" transform="translate(-342.597 -282.623)"/>
            <path id="Path_1508" d="M331.45 39.724a1.522 1.522 0 0 0 .772.207 1.544 1.544 0 0 0 1.34-.772l3.086-5.346a1.543 1.543 0 0 0-2.673-1.543l-3.086 5.346a1.543 1.543 0 0 0 .561 2.108z" class="cls-1" transform="translate(-282.838 -26.949)"/>
            <path id="Path_1509" d="M122.734 401.144a1.543 1.543 0 0 0-2.108.565l-3.086 5.346a1.543 1.543 0 0 0 .565 2.108 1.522 1.522 0 0 0 .772.207 1.543 1.543 0 0 0 1.34-.772l3.086-5.346a1.543 1.543 0 0 0-.567-2.108z" class="cls-1" transform="translate(-100.357 -342.93)"/>
        </g>
    </g>
    <path id="Path_1510" fill="#a3d4f7" d="M71.944 204.833a16.763 16.763 0 0 0-3.313.331 13.661 13.661 0 0 0-19.131-9.713A18.234 18.234 0 1 0 15.219 207.9a15.2 15.2 0 0 0 .457 30.392h56.268a16.728 16.728 0 1 0 0-33.457zm0 0" transform="translate(-.499 -147.289)"/>
</svg>
