<svg xmlns="http://www.w3.org/2000/svg" width="37" height="37" viewBox="0 0 37 37">
    <defs>
        <linearGradient id="t73ij20hua" x2="1" y1=".5" y2=".5" gradientUnits="objectBoundingBox">
            <stop offset="0" stop-color="#6e52fc"/>
            <stop offset="1" stop-color="#52a0f8"/>
        </linearGradient>
    </defs>
    <path fill="url(#t73ij20hua)" d="M20.49 2a18.5 18.5 0 1 0 18.5 18.5A18.507 18.507 0 0 0 20.49 2zm6.678 11.729A3.57 3.57 0 1 1 23.6 17.3a3.561 3.561 0 0 1 3.571-3.571zm-11.1-2.923a4.366 4.366 0 1 1-4.368 4.366 4.374 4.374 0 0 1 4.368-4.366zm0 16.89v6.937a14.812 14.812 0 0 1-9.509-9.176c1.942-2.072 6.789-3.126 9.509-3.126a18.819 18.819 0 0 1 3.515.407c-3.034 1.61-3.515 3.737-3.515 4.962zm4.421 7.6a12.674 12.674 0 0 1-1.461-.074V27.7c0-2.627 5.439-3.941 8.14-3.941 1.979 0 5.4.722 7.1 2.127A14.835 14.835 0 0 1 20.49 35.3z" transform="translate(-1.99 -2)"/>
</svg>
