<svg xmlns="http://www.w3.org/2000/svg" id="Group_6251" width="296" height="100" viewBox="0 0 296 100">
    <defs>
        <style>
            .cls-2,.cls-3{fill:#5c4da0}.cls-3{opacity:.3}.cls-4{fill:#a3a0fb}
        </style>
    </defs>
    <g id="Group_6140" transform="translate(98)">
        <rect id="Rectangle_2023" width="100" height="100" fill="#f5f7fa" rx="10"/>
    </g>
    <path id="Path_912" d="M19 13h-6v6h-2v-6H5v-2h6V5h2v6h6z" class="cls-2" transform="translate(49 -5)"/>
    <path id="Path_6722" d="M19 13h-6v6h-2v-6H5v-2h6V5h2v6h6z" class="cls-2" transform="translate(-5 45)"/>
    <path id="Path_6724" d="M19 13h-6v6h-2v-6H5v-2h6V5h2v6h6z" class="cls-2" transform="translate(35 81)"/>
    <path id="Path_6726" d="M15 10.714h-4.286V15H9.286v-4.286H5V9.286h4.286V5h1.429v4.286H15z" class="cls-3" transform="translate(65 40)"/>
    <path id="Path_6727" d="M15 10.714h-4.286V15H9.286v-4.286H5V9.286h4.286V5h1.429v4.286H15z" class="cls-3" transform="translate(211 40)"/>
    <path id="Path_6721" d="M19 13h-6v6h-2v-6H5v-2h6V5h2v6h6z" class="cls-2" transform="translate(223 81)"/>
    <path id="Path_6725" d="M19 13h-6v6h-2v-6H5v-2h6V5h2v6h6z" class="cls-2" transform="translate(237 -5)"/>
    <path id="Path_6723" d="M19 13h-6v6h-2v-6H5v-2h6V5h2v6h6z" class="cls-2" transform="translate(277 52)"/>
    <path id="Rectangle_2029" d="M0 0H5V5H0z" class="cls-4" transform="translate(25 14)"/>
    <path id="Rectangle_2032" d="M0 0H5V5H0z" class="cls-4" transform="translate(80 81)"/>
    <path id="Rectangle_2030" d="M0 0H5V5H0z" class="cls-4" transform="translate(267 81)"/>
    <path id="Rectangle_2031" d="M0 0H5V5H0z" class="cls-4" transform="translate(226 14)"/>
    <path id="Path_1317" fill="#bcbccb" d="M27 2a25 25 0 1 0 25 25A25.009 25.009 0 0 0 27 2zm3.525 40.225V47H23.85v-4.825c-4.275-.9-7.9-3.65-8.175-8.5h4.9c.25 2.625 2.05 4.675 6.625 4.675 4.9 0 6-2.45 6-3.975 0-2.075-1.1-4.025-6.675-5.35-6.2-1.5-10.45-4.05-10.45-9.175 0-4.3 3.475-7.1 7.775-8.025V7h6.675v4.875a8.838 8.838 0 0 1 7.125 8.475h-4.9c-.125-2.775-1.6-4.675-5.55-4.675-3.75 0-6 1.7-6 4.1 0 2.1 1.625 3.475 6.675 4.775s10.45 3.475 10.45 9.775c-.025 4.575-3.45 7.075-7.8 7.9z" transform="translate(121 23)"/>
</svg>
