<svg xmlns="http://www.w3.org/2000/svg" width="21.624" height="28.801" viewBox="0 0 21.624 28.801">
    <g>
        <path d="M19.581 44.566h-.04a2.221 2.221 0 0 0-1.5.569 2.335 2.335 0 0 0-2.168-1.582 2.249 2.249 0 0 0-1.607.691 2.3 2.3 0 0 0-2.054-1.313h-.043a2.108 2.108 0 0 0-1.322.44v-5.579a2.394 2.394 0 0 0-2.326-2.445A2.39 2.39 0 0 0 6.2 37.791l-.007 11.068-.627-.759a3.16 3.16 0 0 0-2.233-1.173A3.109 3.109 0 0 0 1 47.75l-.54.45a.484.484 0 0 0-.121.6l5.3 10.186a5.464 5.464 0 0 0 4.811 3.023h5.972V62a5.686 5.686 0 0 0 5.486-5.854v-3.391c0-2.333 0-3.194-.005-5.764a2.378 2.378 0 0 0-2.318-2.427zm1.347 8.188v3.4a4.731 4.731 0 0 1-4.531 4.889H10.45a4.5 4.5 0 0 1-3.952-2.5L1.379 48.7l.253-.211.019-.017a2.151 2.151 0 0 1 1.615-.58 2.2 2.2 0 0 1 1.551.821l1.483 1.8a.484.484 0 0 0 .859-.307l.009-12.421a1.426 1.426 0 0 1 1.357-1.475 1.426 1.426 0 0 1 1.357 1.476v10.802a.484.484 0 1 0 .969 0V45.3a1.358 1.358 0 0 1 1.322-1.4h.043a1.414 1.414 0 0 1 1.36 1.461v2.93a.484.484 0 0 0 .969 0v-2.3a1.339 1.339 0 1 1 2.665 0v2.169a.484.484 0 1 0 .969 0v-1.174a1.408 1.408 0 0 1 1.363-1.451h.04a1.406 1.406 0 0 1 1.346 1.459c.006 2.568 0 3.428 0 5.76zm0 0" transform="translate(-.284) translate(0 -33.207)"/>
        <path d="M65.094 4.795a.485.485 0 0 0 .484-.484 3.357 3.357 0 0 1 6.715 0 .484.484 0 0 0 .969 0 4.326 4.326 0 0 0-8.653 0 .485.485 0 0 0 .485.484zm0 0" transform="translate(-.284) translate(-60.43)"/>
    </g>
</svg>
