<svg xmlns="http://www.w3.org/2000/svg" id="noun_Happy_2794086" width="22" height="22" viewBox="0 0 22 22">
    <defs>
        <style>
            .cls-1{fill:#4f4f4f}
        </style>
    </defs>
    <path id="Path_794" d="M18.5 29.5a11 11 0 1 1 11-11 11 11 0 0 1-11 11zm0-20.706a9.706 9.706 0 1 0 9.706 9.706A9.706 9.706 0 0 0 18.5 8.794z" class="cls-1" transform="translate(-7.5 -7.5)"/>
    <circle id="Ellipse_50" cx="1.292" cy="1.292" r="1.292" class="cls-1" transform="translate(5.585 7.63)"/>
    <circle id="Ellipse_51" cx="1.292" cy="1.292" r="1.292" class="cls-1" transform="translate(13.833 7.63)"/>
    <path id="Path_795" d="M36.229 64.53q-.217 0-.431-.018a6.164 6.164 0 0 1-3.922-1.967.63.63 0 0 1 .952-.816c.121.141 3.023 3.426 7.109-.068a.63.63 0 1 1 .819.957 6.962 6.962 0 0 1-4.527 1.912z" class="cls-1" transform="translate(-25.354 -47.469)"/>
</svg>
