<svg xmlns="http://www.w3.org/2000/svg" width="14.251" height="19.491" viewBox="0 0 14.251 19.491">
    <g>
        <g>
            <path fill="#4f4f4f" d="M75.943 0a7.2 7.2 0 0 0-7.126 7.254c0 2.237 1.132 4.953 3.363 8.071a35.567 35.567 0 0 0 3.31 3.975.637.637 0 0 0 .894.01 32.1 32.1 0 0 0 3.316-3.875c2.233-3.072 3.366-5.825 3.366-8.181A7.2 7.2 0 0 0 75.943 0zm0 10.385A3.484 3.484 0 1 1 79.426 6.9a3.488 3.488 0 0 1-3.483 3.485z" transform="translate(-68.817) translate(68.817) translate(-68.817)"/>
        </g>
    </g>
</svg>
