<svg xmlns="http://www.w3.org/2000/svg" width="27" height="27" viewBox="0 0 27 27">
    <defs>
        <style>
            .cls-2{fill:#707070}
        </style>
    </defs>
    <g id="Group_3118" transform="translate(-1121 -370)">
        <g id="Avatar" fill="none" stroke="#707070" transform="translate(1121 370)">
            <rect width="27" height="27" stroke="none" rx="13.5"/>
            <rect width="26" height="26" x=".5" y=".5" rx="13"/>
        </g>
        <g id="user" transform="translate(1101.368 373.712)">
            <g id="Group_3114" transform="translate(27.95)">
                <g id="Group_3113">
                    <path id="Path_1462" d="M116.02 0a5.229 5.229 0 1 0 5.229 5.229A5.242 5.242 0 0 0 116.02 0z" class="cls-2" transform="translate(-110.791)"/>
                </g>
            </g>
            <g id="Group_3116" transform="translate(24.165 10.831)">
                <g id="Group_3115">
                    <path id="Path_1463" d="M42.152 251.645a4.876 4.876 0 0 0-.525-.959 6.5 6.5 0 0 0-4.5-2.831.963.963 0 0 0-.662.16 5.573 5.573 0 0 1-6.576 0 .857.857 0 0 0-.662-.16 6.452 6.452 0 0 0-4.5 2.831 5.622 5.622 0 0 0-.525.959.486.486 0 0 0 .023.434 9.1 9.1 0 0 0 .616.913 8.672 8.672 0 0 0 1.05 1.187 13.688 13.688 0 0 0 1.05.913 10.412 10.412 0 0 0 12.421 0 10.033 10.033 0 0 0 1.05-.913 10.537 10.537 0 0 0 1.05-1.187 8 8 0 0 0 .616-.913.39.39 0 0 0 .074-.434z" class="cls-2" transform="translate(-24.165 -247.841)"/>
                </g>
            </g>
        </g>
    </g>
</svg>
