<svg xmlns="http://www.w3.org/2000/svg" width="55" height="55" viewBox="0 0 55 55">
    <path fill="#a3a0fb" d="M58.332 43.787l-7.215-7.214 5.67-5.67 3.857 3.857zM56.788 24.1l-5.67-5.67 7.215-7.214 2.313 9.028zM45.9 5.5l9.03 2.311-7.214 7.215-5.67-5.67zM35.241 9.356l-5.67 5.67-7.214-7.215L31.384 5.5zm-16.287 1.857l7.215 7.215L20.5 24.1l-3.858-3.86zM20.5 30.9l5.67 5.67-7.215 7.215-2.313-9.027zm10.884 18.6l-9.028-2.313 7.215-7.215 5.67 5.67zm12.929-12.928l-5.67 5.67-5.67-5.67 5.67-5.67zm3.4-14.742l5.67 5.67-5.67 5.67-5.67-5.67zM35.241 27.5l-5.67 5.67L23.9 27.5l5.67-5.67zm-2.268-9.072l5.67-5.67 5.67 5.67-5.67 5.67zm9.072 27.216l5.67-5.67 7.214 7.214L45.9 49.5zm19.7 4.961l4.394-17.152L60.19 27.5l5.953-5.954-4.394-17.152L44.6 0l-5.957 5.954L32.689 0 15.537 4.395l-4.394 17.152L17.1 27.5l-5.954 5.954 4.394 17.152L32.69 55l5.954-5.954L44.6 55z" transform="translate(-11.143)"/>
</svg>
