<svg xmlns="http://www.w3.org/2000/svg" width="91" height="91" viewBox="0 0 91 91">
    <defs>
        <style>
            .cls-1{fill:#9af9ff}.cls-2{fill:#86effd}
        </style>
    </defs>
    <g id="rain">
        <g id="Group_3235" transform="translate(9.953 65.406)">
            <path id="Path_1480" d="M202.84 377.952a2.844 2.844 0 0 1-2.364-4.421l2.844-4.266a2.844 2.844 0 1 1 4.732 3.155l-2.844 4.266a2.841 2.841 0 0 1-2.368 1.266z" class="cls-1" transform="translate(-174.405 -367.998)"/>
            <path id="Path_1481" d="M66.84 377.952a2.844 2.844 0 0 1-2.364-4.421l2.844-4.266a2.844 2.844 0 1 1 4.732 3.155l-2.844 4.266a2.841 2.841 0 0 1-2.368 1.266z" class="cls-1" transform="translate(-62.577 -367.998)"/>
            <path id="Path_1482" d="M354.84 377.952a2.844 2.844 0 0 1-2.363-4.421l2.844-4.266a2.844 2.844 0 1 1 4.732 3.155l-2.844 4.266a2.841 2.841 0 0 1-2.369 1.266z" class="cls-1" transform="translate(-299.39 -367.998)"/>
            <path id="Path_1483" d="M202.84 465.952a2.844 2.844 0 0 1-2.364-4.421l2.844-4.266a2.844 2.844 0 1 1 4.732 3.155l-2.844 4.266a2.841 2.841 0 0 1-2.368 1.266z" class="cls-1" transform="translate(-174.405 -440.358)"/>
            <path id="Path_1484" d="M274.84 409.952a2.844 2.844 0 0 1-2.363-4.421l2.844-4.266a2.844 2.844 0 1 1 4.732 3.155l-2.844 4.266a2.841 2.841 0 0 1-2.369 1.266z" class="cls-1" transform="translate(-233.608 -394.311)"/>
            <path id="Path_1485" d="M346.84 465.952a2.844 2.844 0 0 1-2.363-4.421l2.844-4.266a2.844 2.844 0 0 1 4.732 3.155l-2.844 4.266a2.841 2.841 0 0 1-2.369 1.266z" class="cls-1" transform="translate(-292.812 -440.358)"/>
            <path id="Path_1486" d="M130.84 409.952a2.844 2.844 0 0 1-2.364-4.421l2.844-4.266a2.844 2.844 0 0 1 4.732 3.155l-2.844 4.266a2.841 2.841 0 0 1-2.368 1.266z" class="cls-1" transform="translate(-115.202 -394.311)"/>
            <path id="Path_1487" d="M58.84 465.952a2.844 2.844 0 0 1-2.364-4.421l2.844-4.266a2.844 2.844 0 1 1 4.732 3.155l-2.844 4.266a2.841 2.841 0 0 1-2.368 1.266z" class="cls-1" transform="translate(-55.999 -440.358)"/>
        </g>
        <path id="Path_1488" d="M209.789 374.132l-2.844 4.266a2.844 2.844 0 0 1-3.944.787 2.788 2.788 0 0 1-.89-.958 2.843 2.843 0 0 0 3.768-.9l2.844-4.266a2.836 2.836 0 0 0 .1-2.984c.06.034.119.069.176.108a2.844 2.844 0 0 1 .787 3.944z" class="cls-2" transform="translate(-166.189 -304.304)"/>
        <path id="Path_1489" d="M73.789 374.132l-2.844 4.268a2.844 2.844 0 0 1-3.944.787 2.788 2.788 0 0 1-.89-.958 2.843 2.843 0 0 0 3.768-.9l2.844-4.266a2.836 2.836 0 0 0 .1-2.984c.06.034.119.069.176.108a2.844 2.844 0 0 1 .787 3.944z" class="cls-2" transform="translate(-54.361 -304.304)"/>
        <path id="Path_1490" d="M361.789 374.132l-2.844 4.266a2.844 2.844 0 0 1-3.944.787 2.788 2.788 0 0 1-.89-.958 2.843 2.843 0 0 0 3.768-.9l2.844-4.266a2.836 2.836 0 0 0 .1-2.984c.06.034.119.069.176.108a2.844 2.844 0 0 1 .787 3.944z" class="cls-2" transform="translate(-291.174 -304.304)"/>
        <path id="Path_1491" d="M209.789 462.132l-2.844 4.266a2.844 2.844 0 0 1-3.944.787 2.788 2.788 0 0 1-.89-.958 2.843 2.843 0 0 0 3.768-.9l2.844-4.266a2.836 2.836 0 0 0 .1-2.984c.06.034.119.069.176.108a2.844 2.844 0 0 1 .79 3.947z" class="cls-2" transform="translate(-166.189 -376.664)"/>
        <path id="Path_1492" d="M281.789 406.132l-2.844 4.266a2.844 2.844 0 0 1-3.944.787 2.789 2.789 0 0 1-.89-.958 2.843 2.843 0 0 0 3.768-.9l2.844-4.266a2.836 2.836 0 0 0 .1-2.984c.06.034.119.069.176.108a2.844 2.844 0 0 1 .787 3.944z" class="cls-2" transform="translate(-225.393 -330.617)"/>
        <path id="Path_1493" d="M353.789 462.132l-2.844 4.266a2.844 2.844 0 0 1-3.944.787 2.788 2.788 0 0 1-.89-.958 2.843 2.843 0 0 0 3.768-.9l2.844-4.266a2.836 2.836 0 0 0 .1-2.984c.06.034.119.069.176.108a2.844 2.844 0 0 1 .79 3.947z" class="cls-2" transform="translate(-284.596 -376.664)"/>
        <path id="Path_1494" d="M137.789 406.132l-2.844 4.266a2.844 2.844 0 0 1-3.944.787 2.788 2.788 0 0 1-.89-.958 2.843 2.843 0 0 0 3.768-.9l2.844-4.266a2.836 2.836 0 0 0 .1-2.984c.06.034.119.069.176.108a2.844 2.844 0 0 1 .79 3.947z" class="cls-2" transform="translate(-106.986 -330.617)"/>
        <path id="Path_1495" d="M65.789 462.132l-2.844 4.268a2.844 2.844 0 0 1-3.944.787 2.788 2.788 0 0 1-.89-.958 2.843 2.843 0 0 0 3.768-.9l2.844-4.266a2.836 2.836 0 0 0 .1-2.984c.06.034.119.069.176.108a2.844 2.844 0 0 1 .79 3.945z" class="cls-2" transform="translate(-47.783 -376.664)"/>
        <path id="Path_1496" d="M91 39.812a19.928 19.928 0 0 1-19.905 19.907H19.907A19.906 19.906 0 1 1 22.9 20.13a22.752 22.752 0 0 1 45.2 0A19.921 19.921 0 0 1 91 39.812z" class="cls-1" transform="translate(-.001)"/>
        <path id="Path_1497" d="M403.462 131.906A19.924 19.924 0 0 1 380 151.5a19.911 19.911 0 0 0 0-39.18 19.924 19.924 0 0 1 23.461 19.59z" class="cls-2" transform="translate(-312.462 -92.094)"/>
    </g>
</svg>
