<svg xmlns="http://www.w3.org/2000/svg" width="91" height="91" viewBox="0 0 91 91">
    <defs>
        <style>
            .cls-1{fill:#fdd020}
        </style>
    </defs>
    <g id="Group_3688" transform="translate(-1207 -8015)">
        <g id="sunny" transform="translate(1207 8015)">
            <circle id="Ellipse_331" cx="29.674" cy="29.674" r="29.674" class="cls-1" transform="translate(15.826 15.826)"/>
            <g id="Group_3236">
                <path id="Path_1498" d="M236.644 11.87a1.978 1.978 0 0 0 1.978-1.978V1.978a1.978 1.978 0 0 0-3.957 0v7.913a1.978 1.978 0 0 0 1.979 1.979z" class="cls-1" transform="translate(-191.145)"/>
                <path id="Path_1499" d="M236.644 426.667a1.978 1.978 0 0 0-1.978 1.978v7.913a1.978 1.978 0 0 0 3.957 0v-7.913a1.978 1.978 0 0 0-1.979-1.978z" class="cls-1" transform="translate(-191.145 -347.537)"/>
                <path id="Path_1500" d="M436.557 234.667h-7.913a1.978 1.978 0 1 0 0 3.957h7.913a1.978 1.978 0 1 0 0-3.957z" class="cls-1" transform="translate(-347.536 -191.145)"/>
                <path id="Path_1501" d="M11.87 236.644a1.978 1.978 0 0 0-1.978-1.978H1.978a1.978 1.978 0 0 0 0 3.957h7.913a1.978 1.978 0 0 0 1.979-1.979z" class="cls-1" transform="translate(0 -191.145)"/>
                <path id="Path_1502" d="M121.6 41.314a1.978 1.978 0 0 0 1.717.989 1.95 1.95 0 0 0 .989-.265 1.978 1.978 0 0 0 .724-2.7l-3.956-6.853a1.978 1.978 0 0 0-3.426 1.978z" class="cls-1" transform="translate(-95.618 -25.662)"/>
                <path id="Path_1503" d="M334.386 401.977a1.978 1.978 0 0 0-3.426 1.978l3.956 6.853a1.978 1.978 0 0 0 1.717.989 1.95 1.95 0 0 0 .989-.265 1.978 1.978 0 0 0 .724-2.7z" class="cls-1" transform="translate(-269.369 -326.629)"/>
                <path id="Path_1504" d="M402.915 125.071a1.95 1.95 0 0 0 .989-.265l6.853-3.956a1.978 1.978 0 0 0-1.834-3.506q-.074.039-.144.083l-6.853 3.956a1.978 1.978 0 0 0 .989 3.691z" class="cls-1" transform="translate(-326.578 -95.397)"/>
                <path id="Path_1505" d="M39.286 330.756l-6.853 3.956a1.978 1.978 0 0 0 .989 3.691 1.95 1.95 0 0 0 .989-.265l6.853-3.956a1.978 1.978 0 0 0-1.834-3.506q-.074.039-.144.083z" class="cls-1" transform="translate(-25.613 -269.165)"/>
                <path id="Path_1506" d="M32.1 120.831l6.853 3.956a1.95 1.95 0 0 0 .985.265 1.978 1.978 0 0 0 .989-3.691l-6.853-3.961a1.978 1.978 0 0 0-2.123 3.339q.07.045.144.083z" class="cls-1" transform="translate(-25.278 -95.379)"/>
                <path id="Path_1507" d="M410.441 334.7l-6.853-3.956a1.978 1.978 0 1 0-2.123 3.339c.047.03.1.058.144.083l6.853 3.956a1.95 1.95 0 0 0 .989.265 1.978 1.978 0 0 0 .989-3.691z" class="cls-1" transform="translate(-326.263 -269.148)"/>
                <path id="Path_1508" d="M331.667 42.04a1.951 1.951 0 0 0 .989.265 1.979 1.979 0 0 0 1.717-.989l3.956-6.853a1.978 1.978 0 0 0-3.426-1.978l-3.956 6.853a1.978 1.978 0 0 0 .72 2.702z" class="cls-1" transform="translate(-269.352 -25.664)"/>
                <path id="Path_1509" d="M124.256 401.2a1.978 1.978 0 0 0-2.7.724l-3.956 6.853a1.978 1.978 0 0 0 .724 2.7 1.95 1.95 0 0 0 .989.265 1.978 1.978 0 0 0 1.717-.989l3.956-6.853a1.978 1.978 0 0 0-.727-2.7z" class="cls-1" transform="translate(-95.572 -326.579)"/>
            </g>
        </g>
    </g>
</svg>
