<svg xmlns="http://www.w3.org/2000/svg" id="upload" width="92.976" height="93.388" viewBox="0 0 92.976 93.388">
    <defs>
        <style>
            .cls-1{fill:#828282}
        </style>
    </defs>
    <g id="Group_1068">
        <g id="Group_1067">
            <path id="Path_778" d="M75.986 28.158c.031-.528.048-1.064.048-1.619a26.326 26.326 0 0 0-51.54-7.761c-.392-.02-.77-.031-1.144-.031a23.376 23.376 0 0 0 0 46.75h13.963a1.558 1.558 0 0 0 0-3.117H23.351a20.259 20.259 0 0 1 0-40.517 20.689 20.689 0 0 1 2.138.117 1.581 1.581 0 0 0 1.658-1.17 23.229 23.229 0 0 1 45.788 5.728 21.258 21.258 0 0 1-.187 2.906 1.559 1.559 0 0 0 1.536 1.769h.2a15.584 15.584 0 0 1 0 31.167h-18.49a1.558 1.558 0 0 0 0 3.117h18.49a18.7 18.7 0 0 0 1.5-37.339z" class="cls-1" transform="translate(-.108)"/>
            <path id="Path_779" d="M181.194 167.553l-18.627-18.625-18.627 18.625 2.193 2.193 14.885-14.886v58.24h3.1v-58.24L179 169.746z" class="cls-1" transform="translate(-116.081 -119.711)"/>
        </g>
    </g>
</svg>
