<svg xmlns="http://www.w3.org/2000/svg" width="17.396" height="17.396" viewBox="0 0 17.396 17.396">
    <defs>
        <style>
            .cls-1{fill:#333}
        </style>
    </defs>
    <g id="weather" transform="translate(-.001)">
        <g id="Group_1585" transform="translate(.001)">
            <g id="Group_1584">
                <path id="Path_950" d="M15.362 6.953c0-.021 0-.043-.006-.064a3.476 3.476 0 1 0-4.492-5.272A3.917 3.917 0 0 0 7.733 0 4.1 4.1 0 0 0 4.58 1.483h-.009l-.04-.017-.1-.041-.057-.025-.047-.015-.06-.019-.046-.012-.064-.016-.044-.01-.068-.013L4 1.308 3.932 1.3h-.039l-.081-.007H3.666a2.048 2.048 0 0 0-2.09 2v.03A3.014 3.014 0 0 0 0 5.877 2.731 2.731 0 0 0 2.765 8.7h1.09a2.64 2.64 0 0 0-.085.659 2.731 2.731 0 0 0 2.764 2.82H6.8l-.054.122a.29.29 0 0 0 .147.383.287.287 0 0 0 .117.025.29.29 0 0 0 .265-.172l.159-.358h1.1l-.054.122a.29.29 0 0 0 .147.383.287.287 0 0 0 .117.025.29.29 0 0 0 .265-.172l.159-.358h1.1l-.054.122a.29.29 0 0 0 .147.383.287.287 0 0 0 .117.025.29.29 0 0 0 .265-.172l.159-.358h1.1l-.054.122a.29.29 0 0 0 .147.383.287.287 0 0 0 .117.025.29.29 0 0 0 .265-.172l.159-.358h1.1l-.054.122a.29.29 0 0 0 .147.383.287.287 0 0 0 .117.025.29.29 0 0 0 .265-.172l.159-.358h.236A2.71 2.71 0 0 0 17.4 9.531a2.729 2.729 0 0 0-2.038-2.578zM13.338 1.16a2.9 2.9 0 0 1 1.9 5.087 3.872 3.872 0 0 0-3.655-2.767 3.686 3.686 0 0 0-.4-1.354 2.88 2.88 0 0 1 2.155-.966zM2.765 8.118A2.164 2.164 0 0 1 .581 5.877a2.45 2.45 0 0 1 1.4-2.119.29.29 0 0 0 .17-.264v-.1a.229.229 0 0 0 0-.035v-.032-.047a1.468 1.468 0 0 1 1.51-1.419h.156l.065.008h.017l.05.008h.023l.047.01h.019l.062.017.018.005.046.015.021.007.046.017.016.006.068.046.015.007.045.022.019.01.043.023.015.008a1.4 1.4 0 0 1 .723 1.211.29.29 0 0 0 .58 0A1.957 1.957 0 0 0 5.07 1.8 3.575 3.575 0 0 1 7.733.58 3.327 3.327 0 0 1 11 3.511a4.1 4.1 0 0 0-2.652 1.451h-.006l-.1-.042-.035-.02-.065-.024-.042-.011-.061-.019-.049-.013-.062-.016-.046-.01-.065-.007-.045-.008-.072-.014-.042-.005-.077-.006h-.15a2.107 2.107 0 0 0-1.825 1.027 1.167 1.167 0 0 1-1.015-.446.29.29 0 0 0-.473-.014 1.16 1.16 0 0 1-1.855 0 .29.29 0 1 0-.463.348 1.741 1.741 0 0 0 2.55.253 1.717 1.717 0 0 0 1.035.437 1.918 1.918 0 0 0-.04.386v.034a3.075 3.075 0 0 0-1.271 1.326H2.765zM14.632 11.6h-8.1A2.165 2.165 0 0 1 4.35 9.357a2.1 2.1 0 0 1 .12-.685.289.289 0 0 0 .155-.354 2.481 2.481 0 0 1 1.13-1.081.29.29 0 0 0 .17-.264v-.1a.229.229 0 0 0 0-.035v-.032-.047a1.468 1.468 0 0 1 1.51-1.419h.16l.066.008h.016l.051.009h.023l.046.01h.02l.061.016.022.027.041.013.026.009.033.014.025.01.054.023.029.014.028.013.032.016.023.012.034.019.009.006.039.024a1.4 1.4 0 0 1 .671 1.177.29.29 0 1 0 .58 0 1.957 1.957 0 0 0-.685-1.479A3.574 3.574 0 0 1 11.5 4.059a3.272 3.272 0 0 1 3.252 2.689.288.288 0 0 0 .013.086v.035a4.484 4.484 0 0 0-.856.031.29.29 0 0 0 .041.577.3.3 0 0 0 .042 0 4.314 4.314 0 0 1 1.037 0 2.148 2.148 0 0 1 1.781 2.058 2.13 2.13 0 0 1-2.178 2.065z" class="cls-1" transform="translate(-.001)"/>
                <path id="Path_951" d="M177.628 389.055l.235-.53a.29.29 0 0 0-.53-.235l-.236.53a.29.29 0 0 0 .53.236z" class="cls-1" transform="translate(-171.057 -374.931)"/>
                <path id="Path_952" d="M156.926 434.935a.29.29 0 0 0-.383.147l-.235.53a.29.29 0 1 0 .53.235l.235-.53a.29.29 0 0 0-.147-.382z" class="cls-1" transform="translate(-150.973 -420.134)"/>
                <path id="Path_953" d="M228.917 388.142a.29.29 0 0 0-.383.147l-.236.53a.29.29 0 0 0 .147.383.287.287 0 0 0 .117.025.291.291 0 0 0 .266-.172l.235-.53a.29.29 0 0 0-.146-.383z" class="cls-1" transform="translate(-220.517 -374.931)"/>
                <path id="Path_954" d="M208.126 434.935a.29.29 0 0 0-.383.147l-.235.53a.29.29 0 1 0 .53.235l.235-.53a.29.29 0 0 0-.147-.382z" class="cls-1" transform="translate(-200.434 -420.134)"/>
                <path id="Path_955" d="M188.34 481.719a.29.29 0 0 0-.383.147l-.2.45a.29.29 0 0 0 .147.382.283.283 0 0 0 .118.025.29.29 0 0 0 .265-.172l.2-.45a.29.29 0 0 0-.147-.382z" class="cls-1" transform="translate(-181.354 -465.328)"/>
                <path id="Path_956" d="M280.028 389.055l.235-.53a.29.29 0 0 0-.53-.235l-.236.53a.29.29 0 0 0 .147.383.287.287 0 0 0 .117.025.291.291 0 0 0 .267-.173z" class="cls-1" transform="translate(-269.978 -374.931)"/>
                <path id="Path_957" d="M259.326 434.934a.291.291 0 0 0-.383.147l-.235.53a.29.29 0 0 0 .147.383.287.287 0 0 0 .117.025.29.29 0 0 0 .265-.172l.235-.53a.29.29 0 0 0-.146-.383z" class="cls-1" transform="translate(-249.894 -420.132)"/>
                <path id="Path_958" d="M310.526 434.935a.29.29 0 0 0-.383.147l-.235.53a.29.29 0 1 0 .53.235l.235-.53a.29.29 0 0 0-.147-.382z" class="cls-1" transform="translate(-299.354 -420.134)"/>
                <path id="Path_959" d="M290.74 481.719a.29.29 0 0 0-.383.147l-.2.45a.29.29 0 0 0 .147.382.283.283 0 0 0 .118.025.29.29 0 0 0 .265-.172l.2-.45a.29.29 0 0 0-.147-.382z" class="cls-1" transform="translate(-280.275 -465.328)"/>
                <path id="Path_960" d="M331.317 388.142a.29.29 0 0 0-.383.147l-.236.53a.29.29 0 0 0 .147.383.287.287 0 0 0 .117.025.291.291 0 0 0 .266-.172l.235-.53a.29.29 0 0 0-.146-.383z" class="cls-1" transform="translate(-319.438 -374.931)"/>
                <path id="Path_961" d="M361.726 434.934a.291.291 0 0 0-.383.147l-.235.53a.29.29 0 0 0 .147.383.287.287 0 0 0 .117.025.29.29 0 0 0 .265-.172l.235-.53a.29.29 0 0 0-.146-.383z" class="cls-1" transform="translate(-348.815 -420.132)"/>
                <path id="Path_962" d="M382.517 388.142a.29.29 0 0 0-.383.147l-.236.53a.29.29 0 0 0 .53.236l.235-.53a.29.29 0 0 0-.146-.383z" class="cls-1" transform="translate(-368.899 -374.931)"/>
                <path id="Path_963" d="M167.269 290.189a.291.291 0 0 0-.406.058 1.16 1.16 0 0 1-1.845.015.29.29 0 0 0-.474-.015 1.16 1.16 0 0 1-1.855 0 .29.29 0 0 0-.463.349 1.741 1.741 0 0 0 2.55.253 1.742 1.742 0 0 0 2.551-.254.291.291 0 0 0-.058-.406z" class="cls-1" transform="translate(-156.658 -280.273)"/>
                <path id="Path_964" d="M295.269 230.458a.291.291 0 0 0-.406.058 1.16 1.16 0 0 1-1.845.014.29.29 0 0 0-.473-.014 1.16 1.16 0 0 1-1.855 0 .29.29 0 0 0-.463.349 7.194 7.194 0 0 1 3.71.694 1.727 1.727 0 0 0 1.392-.7.291.291 0 0 0-.06-.401z" class="cls-1" transform="translate(-280.309 -222.572)"/>
            </g>
        </g>
    </g>
</svg>
