<svg xmlns="http://www.w3.org/2000/svg" width="25.609" height="10.309" viewBox="0 0 25.609 10.309">
    <path fill="#a3a0fb" d="M186.408 3.384a5.221 5.221 0 0 0-1.459-2.118 4.972 4.972 0 0 0-2.2-1.13 5.057 5.057 0 0 0-1.586-.118 4.885 4.885 0 0 0-1.494.357 5.113 5.113 0 0 0-2.245 1.808 4.145 4.145 0 0 0-.613 1.23c-.106.357-.187.713-.268 1.07a.127.127 0 0 1-.144.1h-.81a.56.56 0 0 0 0 1.116h.8c.1 0 .162.021.162.132.032.193.07.389.12.581a4.922 4.922 0 0 0 1.321 2.354 5.07 5.07 0 0 0 5.28 1.234 5.161 5.161 0 0 0 3.412-4.258 2.089 2.089 0 0 1 .194-.785 1.1 1.1 0 0 1 1.357-.563 1.214 1.214 0 0 1 .8 1.07c.028.189.035.382.07.567a5.121 5.121 0 0 0 6.987 3.888 5.179 5.179 0 0 0 3.133-4.073c0-.107.063-.132.166-.132.271 0 .546-.018.821-.018a.564.564 0 0 0 0-1.116h-.81c-.109 0-.18 0-.18-.139a1.569 1.569 0 0 0-.06-.357 5.289 5.289 0 0 0-1.055-2.184 5.092 5.092 0 0 0-4.338-1.868 4.915 4.915 0 0 0-2.114.645A5.106 5.106 0 0 0 189.3 3.53a1.293 1.293 0 0 1-.085.153 2.248 2.248 0 0 0-2.7 0c-.036-.117-.071-.213-.107-.299zM185.6 5.2a4.005 4.005 0 0 1-4.006 4h-.018a4.041 4.041 0 1 1 4.024-4.008zm4.556 0v-.029a4.015 4.015 0 1 1 0 .039z" transform="translate(-175.085)"/>
</svg>
